<svg xmlns="http://www.w3.org/2000/svg" viewBox="0 0 1134 49.38"><defs><style>.cls-1{fill:none;}.cls-2{fill:#00d2ff;}.cls-3{fill:#f00000;}.cls-4{fill:#fff;}</style></defs><g id="Layer_2" data-name="Layer 2"><g id="About"><g id="Banner"><g id="Full_Name_Logo" data-name="Full Name Logo"><path class="cls-1" d="M1019,24.66a11.19,11.19,0,1,0-11.12,12.45A12.48,12.48,0,0,0,1019,24.66Z"/><path class="cls-1" d="M683.23,17.5c0-2.57-2.29-4.44-5.49-4.44h-6.33V22h6.33C680.94,22,683.23,20.07,683.23,17.5Z"/><path class="cls-1" d="M740.66,24.66a11.19,11.19,0,1,0-11.12,12.45A12.48,12.48,0,0,0,740.66,24.66Z"/><path class="cls-1" d="M178.48,24.66c0-6.81-5.14-11.6-12.36-11.6h-4.6V36.32h4.6C173.34,36.32,178.48,31.46,178.48,24.66Z"/><path class="cls-1" d="M793.37,24.66c0-6.81-5.14-11.6-12.36-11.6h-4.6V36.32H781C788.23,36.32,793.37,31.46,793.37,24.66Z"/><path class="cls-1" d="M570.24,24.66a11.19,11.19,0,1,0-11.12,12.45A12.48,12.48,0,0,0,570.24,24.66Z"/><path class="cls-1" d="M468.36,24.66c0-6.81-5.14-11.6-12.36-11.6h-4.6V36.32H456C463.22,36.32,468.36,31.46,468.36,24.66Z"/><path class="cls-1" d="M636.7,17.5c0-2.57-2.29-4.44-5.49-4.44h-6.33V22h6.33C634.41,22,636.7,20.07,636.7,17.5Z"/><path class="cls-2" d="M30.82,34.87c0-2.3-1.66-2.64-8.26-4.17-10.35-2.36-18.34-5.07-18.34-15C4.22,6.46,11.31.38,22.08,0c-.32,0-.63,0-1,0C9.79,0,2.29,6.18,2.29,15.7c0,9.93,8,12.64,18.34,15,6.6,1.53,8.26,1.87,8.26,4.17,0,1.88-1.61,3.08-4.65,3.29.32,0,.63,0,1,0C28.88,38.2,30.82,37,30.82,34.87Z"/><path class="cls-2" d="M21.8,11.23A24.35,24.35,0,0,1,34.38,16L35,15.1a23.37,23.37,0,0,0-12.3-3.92A8.57,8.57,0,0,0,21.8,11.23Z"/><path class="cls-2" d="M8.7,33.24c-.4-.29-.8-.56-1.2-.87l-7.5,9c6,5.34,14.17,8.05,22.78,8.05l.74,0a33.8,33.8,0,0,1-21.59-8Z"/><rect class="cls-2" x="60" y="12.85" width="1.93" height="35.7"/><rect class="cls-2" x="45.91" y="0.83" width="1.93" height="12.02"/><path class="cls-2" d="M126.73,26.67V.83H124.8V26.67c0,5.74-3.37,9.95-8.27,10.44.31,0,.64,0,1,0C122.91,37.16,126.73,32.78,126.73,26.67Z"/><path class="cls-2" d="M94.78,27.36V.83H92.85V27.36c0,12.92,9.38,22,22.71,22l1,0C103.71,48.93,94.78,40,94.78,27.36Z"/><rect class="cls-2" x="146.12" y="0.83" width="1.93" height="47.72"/><path class="cls-2" d="M168.05,13.06h-1.93c7.22,0,12.36,4.79,12.36,11.6s-5.14,11.66-12.36,11.66h1.93c7.22,0,12.36-4.86,12.36-11.66S175.27,13.06,168.05,13.06Z"/><rect class="cls-2" x="198.9" y="0.83" width="1.93" height="47.72"/><polygon class="cls-2" points="278.13 0.83 276.2 0.83 276.2 23.74 278.13 26.39 278.13 0.83"/><polygon class="cls-2" points="259.51 25.64 276.2 48.55 278.13 48.55 259.51 22.99 259.51 25.64"/><rect class="cls-2" x="244.11" y="0.83" width="1.93" height="47.72"/><rect class="cls-2" x="309.53" y="12.85" width="1.93" height="35.7"/><rect class="cls-2" x="295.43" y="0.83" width="1.93" height="12.02"/><polygon class="cls-2" points="357.58 0.83 375.92 48.55 377.85 48.55 359.51 0.83 357.58 0.83"/><polygon class="cls-2" points="396.19 0.83 394.26 0.83 384.52 26.24 385.49 28.75 396.19 0.83"/><rect class="cls-2" x="413.98" y="0.83" width="1.93" height="47.72"/><rect class="cls-2" x="435.99" y="0.83" width="1.93" height="47.72"/><path class="cls-2" d="M457.92,13.06H456c7.22,0,12.36,4.79,12.36,11.6S463.22,36.32,456,36.32h1.92c7.23,0,12.37-4.86,12.37-11.66S465.15,13.06,457.92,13.06Z"/><rect class="cls-2" x="488.77" y="0.83" width="1.93" height="47.72"/><path class="cls-2" d="M560.08,12.22c-.32,0-.64,0-1,.06a12.49,12.49,0,0,1,0,24.83c.32,0,.64,0,1,0,6.53,0,12.09-5.7,12.09-12.5A12.45,12.45,0,0,0,560.08,12.22Z"/><path class="cls-2" d="M534.11,24.66c0-13.1,11.34-24.14,25-24.64l-1,0c-14.1,0-26,11.25-26,24.66s11.87,24.72,26,24.72l1,0C545.45,48.86,534.11,37.75,534.11,24.66Z"/><rect class="cls-2" x="609.47" y="0.83" width="1.93" height="47.72"/><path class="cls-2" d="M633.14,13.06h-1.93c3.2,0,5.49,1.87,5.49,4.44S634.41,22,631.21,22h1.93c3.2,0,5.49-1.88,5.49-4.45S636.34,13.06,633.14,13.06Z"/><rect class="cls-2" x="656" y="0.83" width="1.93" height="47.72"/><polygon class="cls-2" points="673.64 34.17 683.72 48.55 685.64 48.55 675.57 34.17 673.64 34.17"/><path class="cls-2" d="M679.67,13.06h-1.93c3.2,0,5.49,1.87,5.49,4.44S680.94,22,677.74,22h1.93c3.2,0,5.49-1.88,5.49-4.45S682.87,13.06,679.67,13.06Z"/><path class="cls-2" d="M704.53,24.66c0-13.1,11.34-24.14,25-24.64l-1,0c-14.1,0-26,11.25-26,24.66s11.88,24.72,26,24.72l1,0C715.87,48.86,704.53,37.75,704.53,24.66Z"/><path class="cls-2" d="M730.51,12.22c-.33,0-.65,0-1,.06a12.49,12.49,0,0,1,0,24.83c.32,0,.64,0,1,0,6.53,0,12.08-5.7,12.08-12.5A12.44,12.44,0,0,0,730.51,12.22Z"/><rect class="cls-2" x="761.01" y="0.83" width="1.93" height="47.72"/><path class="cls-2" d="M782.94,13.06H781c7.22,0,12.36,4.79,12.36,11.6S788.23,36.32,781,36.32h1.93c7.22,0,12.36-4.86,12.36-11.66S790.16,13.06,782.94,13.06Z"/><path class="cls-2" d="M847.25,26.67V.83h-1.93V26.67c0,5.74-3.37,9.95-8.27,10.44.31,0,.63,0,1,0C843.43,37.16,847.25,32.78,847.25,26.67Z"/><path class="cls-2" d="M815.3,27.36V.83h-1.93V27.36c0,12.92,9.38,22,22.71,22l1,0C824.23,48.93,815.3,40,815.3,27.36Z"/><path class="cls-2" d="M901.42,33.25l-1.1-1a12.28,12.28,0,0,1-8.62,4.8c.34,0,.69.06,1,.06A12,12,0,0,0,901.42,33.25Z"/><path class="cls-2" d="M892.74,12.22c-.36,0-.7,0-1,.06a12.11,12.11,0,0,1,8.56,4.81l1.11-1A11.91,11.91,0,0,0,892.74,12.22Z"/><path class="cls-2" d="M866.76,24.66c0-13.09,11.32-24.12,25-24.64l-.93,0c-14.1,0-26,11.25-26,24.66s11.88,24.72,26,24.72l.93,0C878.08,48.84,866.76,37.74,866.76,24.66Z"/><rect class="cls-2" x="913.1" y="0.83" width="1.93" height="12.02"/><rect class="cls-2" x="927.2" y="12.85" width="1.93" height="35.7"/><rect class="cls-2" x="960.74" y="0.83" width="1.93" height="47.72"/><path class="cls-2" d="M982.88,24.66c0-13.1,11.34-24.14,25-24.64l-1,0c-14.1,0-26,11.25-26,24.66s11.88,24.72,26,24.72l1,0C994.22,48.86,982.88,37.75,982.88,24.66Z"/><path class="cls-2" d="M1008.85,12.22c-.32,0-.64,0-1,.06a12.49,12.49,0,0,1,0,24.83c.32,0,.64,0,1,0,6.53,0,12.09-5.7,12.09-12.5A12.45,12.45,0,0,0,1008.85,12.22Z"/><rect class="cls-2" x="1039.35" y="0.83" width="1.93" height="47.72"/><polygon class="cls-2" points="1054.76 25.64 1071.44 48.55 1073.37 48.55 1054.76 22.99 1054.76 25.64"/><polygon class="cls-2" points="1073.37 0.83 1071.44 0.83 1071.44 23.74 1073.37 26.39 1073.37 0.83"/><path class="cls-2" d="M1120.46,34.87c0-2.3-1.67-2.64-8.27-4.17-10.35-2.36-18.34-5.07-18.34-15,0-9.24,7.09-15.32,17.86-15.67-.32,0-.63,0-1,0-11.32,0-18.82,6.18-18.82,15.7,0,9.93,8,12.64,18.33,15,6.6,1.53,8.27,1.87,8.27,4.17,0,1.88-1.62,3.08-4.66,3.29.32,0,.64,0,1,0C1118.51,38.2,1120.46,37,1120.46,34.87Z"/><path class="cls-2" d="M1111.43,11.23A24.32,24.32,0,0,1,1124,16l.62-.87a23.34,23.34,0,0,0-12.3-3.92A8.57,8.57,0,0,0,1111.43,11.23Z"/><path class="cls-2" d="M1098.33,33.24c-.4-.29-.8-.56-1.2-.87l-7.5,9c6,5.34,14.17,8.05,22.79,8.05l.74,0a33.83,33.83,0,0,1-21.6-8Z"/><path class="cls-3" d="M24.24,38.16A25.42,25.42,0,0,1,9.43,32.37l-.73.87a24.73,24.73,0,0,0,14.57,5C23.61,38.2,23.92,38.18,24.24,38.16Z"/><path class="cls-3" d="M35,15.1c.44.28.88.56,1.31.87l6.74-9.51C37.77,2.22,31.31,0,23,0l-1,0c7.8.17,14,2.36,19,6.43Z"/><path class="cls-3" d="M26.31,19c-6.81-1.46-8.48-2.22-8.48-4.65,0-1.63,1.32-2.86,4-3.08-.35,0-.69-.05-1-.05-3.27,0-4.87,1.32-4.87,3.13,0,2.43,1.67,3.19,8.48,4.65,11.11,2.36,18.06,5.35,18.06,14.45,0,9.85-7.4,15.7-18.92,16l1.19,0c11.95,0,19.66-5.9,19.66-16C44.37,24.31,37.42,21.32,26.31,19Z"/><path class="cls-4" d="M42.44,33.41c0-9.1-6.95-12.09-18.06-14.45-6.81-1.46-8.48-2.22-8.48-4.65,0-1.81,1.6-3.13,4.87-3.13.34,0,.68,0,1,.05a8.57,8.57,0,0,1,.9-.05A23.37,23.37,0,0,1,35,15.1l6.12-8.64C36.05,2.39,29.88.2,22.08,0,11.31.38,4.22,6.46,4.22,15.7c0,9.93,8,12.64,18.34,15,6.6,1.53,8.26,1.87,8.26,4.17,0,2.08-1.94,3.33-5.62,3.33-.33,0-.64,0-1,0s-.63,0-1,0a24.73,24.73,0,0,1-14.57-5L1.93,41.33a33.8,33.8,0,0,0,21.59,8C35,49.11,42.44,43.26,42.44,33.41Z"/><rect class="cls-3" x="73.48" y="12.85" width="1.93" height="35.7"/><rect class="cls-3" x="87.58" y="0.83" width="1.93" height="12.02"/><polygon class="cls-4" points="47.84 0.83 47.84 12.85 60.01 12.85 61.93 12.85 61.93 48.55 73.48 48.55 73.48 12.85 75.41 12.85 87.58 12.85 87.58 0.83 47.84 0.83"/><path class="cls-3" d="M115.56,37.16c.33,0,.65,0,1,0-4.9-.49-8.28-4.7-8.28-10.44V.83h-1.92V26.67C106.33,32.78,110.15,37.16,115.56,37.16Z"/><path class="cls-3" d="M138.28,27.36c0,12.61-8.93,21.57-21.75,22l1,0c13.34,0,22.71-9.1,22.71-22V.83h-1.92Z"/><path class="cls-4" d="M138.28,27.36V.83H126.73V26.67c0,6.11-3.82,10.49-9.24,10.49-.32,0-.65,0-1,0s-.64,0-1,0c-5.41,0-9.23-4.38-9.23-10.49V.83H94.78V27.36c0,12.61,8.93,21.57,21.75,22C129.35,48.93,138.28,40,138.28,27.36Z"/><rect class="cls-3" x="159.59" y="13.06" width="1.93" height="23.27"/><path class="cls-3" d="M165.83.83H163.9c16.67,0,28.47,9.87,28.47,23.83s-11.8,23.89-28.47,23.89h1.93c16.67,0,28.47-9.93,28.47-23.89S182.5.83,165.83.83Z"/><path class="cls-4" d="M192.37,24.66c0-14-11.8-23.83-28.47-23.83H148.05V48.55H163.9C180.57,48.55,192.37,38.62,192.37,24.66ZM168.05,36.32h-8.46V13.06h8.46c7.22,0,12.36,4.79,12.36,11.6S175.27,36.32,168.05,36.32Z"/><rect class="cls-3" x="237.31" y="36.53" width="1.93" height="12.02"/><rect class="cls-3" x="235.08" y="18.2" width="1.93" height="12.02"/><rect class="cls-3" x="212.37" y="30.21" width="1.93" height="6.32"/><rect class="cls-3" x="212.37" y="12.85" width="1.93" height="5.35"/><rect class="cls-3" x="237.31" y="0.83" width="1.93" height="12.02"/><polygon class="cls-4" points="200.83 0.83 200.83 48.55 237.31 48.55 237.31 36.53 214.3 36.53 212.37 36.53 212.37 30.21 214.3 30.21 235.08 30.21 235.08 18.2 214.3 18.2 212.37 18.2 212.37 12.85 214.3 12.85 237.31 12.85 237.31 0.83 200.83 0.83"/><rect class="cls-3" x="289.67" y="0.83" width="1.93" height="47.72"/><polygon class="cls-3" points="257.58 48.55 259.51 48.55 259.51 25.64 257.58 22.99 257.58 48.55"/><polygon class="cls-3" points="276.2 23.74 259.51 0.83 257.58 0.83 276.2 26.39 276.2 23.74"/><polygon class="cls-4" points="278.13 0.83 278.13 26.39 276.2 23.74 276.2 26.39 257.58 0.83 246.04 0.83 246.04 48.55 257.58 48.55 257.58 22.99 259.51 25.64 259.51 22.99 278.13 48.55 289.67 48.55 289.67 0.83 278.13 0.83"/><rect class="cls-3" x="337.1" y="0.83" width="1.93" height="12.02"/><rect class="cls-3" x="323" y="12.85" width="1.93" height="35.7"/><polygon class="cls-4" points="297.36 0.83 297.36 12.85 309.53 12.85 311.46 12.85 311.46 48.55 323 48.55 323 12.85 324.93 12.85 337.1 12.85 337.1 0.83 297.36 0.83"/><polygon class="cls-3" points="391.13 48.55 393.06 48.55 411.4 0.83 409.47 0.83 391.13 48.55"/><polygon class="cls-3" points="384.52 26.24 374.73 0.83 372.8 0.83 383.56 28.75 384.52 26.24"/><polygon class="cls-4" points="396.19 0.83 385.49 28.75 384.52 26.24 383.56 28.75 372.8 0.83 359.51 0.83 377.85 48.55 391.13 48.55 409.47 0.83 396.19 0.83"/><rect class="cls-3" x="427.45" y="0.83" width="1.93" height="47.72"/><rect class="cls-4" x="415.91" y="0.83" width="11.55" height="47.72"/><rect class="cls-3" x="449.47" y="13.06" width="1.93" height="23.27"/><path class="cls-3" d="M455.7.83h-1.93c16.67,0,28.48,9.87,28.48,23.83s-11.81,23.89-28.48,23.89h1.93c16.67,0,28.48-9.93,28.48-23.89S472.37.83,455.7.83Z"/><path class="cls-4" d="M482.25,24.66c0-14-11.81-23.83-28.48-23.83H437.92V48.55h15.85C470.44,48.55,482.25,38.62,482.25,24.66ZM457.92,36.32h-8.45V13.06h8.45c7.23,0,12.37,4.79,12.37,11.6S465.15,36.32,457.92,36.32Z"/><rect class="cls-3" x="527.18" y="0.83" width="1.93" height="12.02"/><rect class="cls-3" x="524.96" y="18.2" width="1.93" height="12.02"/><rect class="cls-3" x="502.25" y="12.85" width="1.93" height="5.35"/><rect class="cls-3" x="502.25" y="30.21" width="1.93" height="6.32"/><rect class="cls-3" x="527.18" y="36.53" width="1.93" height="12.02"/><polygon class="cls-4" points="490.7 0.83 490.7 48.55 527.18 48.55 527.18 36.53 504.18 36.53 502.25 36.53 502.25 30.21 504.18 30.21 524.96 30.21 524.96 18.2 504.18 18.2 502.25 18.2 502.25 12.85 504.18 12.85 527.18 12.85 527.18 0.83 490.7 0.83"/><path class="cls-3" d="M548,24.66a12.48,12.48,0,0,1,11.12-12.38c-.32,0-.64-.06-1-.06a12.44,12.44,0,0,0-12.08,12.44c0,6.8,5.55,12.5,12.08,12.5.33,0,.65,0,1,0A12.52,12.52,0,0,1,548,24.66Z"/><path class="cls-3" d="M560.08,0l-1,0c13.67.5,25,11.54,25,24.64s-11.34,24.2-25,24.7l1,0c14.1,0,26-11.32,26-24.72S574.18,0,560.08,0Z"/><path class="cls-4" d="M584.13,24.66c0-13.1-11.34-24.14-25-24.64-13.67.5-25,11.54-25,24.64s11.34,24.2,25,24.7C572.79,48.86,584.13,37.75,584.13,24.66Zm-24,12.5c-.32,0-.64,0-1,0s-.64,0-1,0c-6.53,0-12.08-5.7-12.08-12.5a12.44,12.44,0,0,1,12.08-12.44c.33,0,.65,0,1,.06s.64-.06,1-.06a12.45,12.45,0,0,1,12.09,12.44C572.17,31.46,566.61,37.16,560.08,37.16Z"/><rect class="cls-3" x="622.95" y="34.17" width="1.93" height="14.38"/><path class="cls-3" d="M634.25.83h-1.93c10.7,0,18.27,6.88,18.27,16.67S643,34.17,632.32,34.17h1.93c10.7,0,18.27-6.87,18.27-16.67S645,.83,634.25.83Z"/><rect class="cls-3" x="622.95" y="13.06" width="1.93" height="8.89"/><path class="cls-4" d="M650.59,17.5C650.59,7.71,643,.83,632.32.83H611.4V48.55H623V34.17h9.37C643,34.17,650.59,27.3,650.59,17.5ZM633.14,22H623V13.06h10.19c3.2,0,5.49,1.87,5.49,4.44S636.34,22,633.14,22Z"/><path class="cls-3" d="M699.05,17.5c0-9.79-7.57-16.67-18.27-16.67h-1.93c10.7,0,18.27,6.88,18.27,16.67a15.85,15.85,0,0,1-9.45,14.87l11.39,16.18H701L689.6,32.37A15.85,15.85,0,0,0,699.05,17.5Z"/><rect class="cls-3" x="669.48" y="34.17" width="1.93" height="14.38"/><rect class="cls-3" x="669.48" y="13.06" width="1.93" height="8.89"/><path class="cls-4" d="M697.12,17.5c0-9.79-7.57-16.67-18.27-16.67H657.93V48.55h11.55V34.17h6.09l10.07,14.38h13.42L687.67,32.37A15.85,15.85,0,0,0,697.12,17.5ZM679.67,22H669.48V13.06h10.19c3.2,0,5.49,1.87,5.49,4.44S682.87,22,679.67,22Z"/><path class="cls-3" d="M730.51,0l-1,0c13.67.5,25,11.54,25,24.64s-11.34,24.2-25,24.7l1,0c14.1,0,26-11.32,26-24.72S744.61,0,730.51,0Z"/><path class="cls-3" d="M718.42,24.66a12.48,12.48,0,0,1,11.12-12.38c-.32,0-.64-.06-1-.06a12.45,12.45,0,0,0-12.09,12.44c0,6.8,5.56,12.5,12.09,12.5.32,0,.64,0,1,0A12.52,12.52,0,0,1,718.42,24.66Z"/><path class="cls-4" d="M754.55,24.66c0-13.1-11.34-24.14-25-24.64-13.67.5-25,11.54-25,24.64s11.34,24.2,25,24.7C743.21,48.86,754.55,37.75,754.55,24.66Zm-24,12.5c-.33,0-.65,0-1,0s-.64,0-1,0c-6.53,0-12.09-5.7-12.09-12.5a12.45,12.45,0,0,1,12.09-12.44c.32,0,.64,0,1,.06s.64-.06,1-.06a12.44,12.44,0,0,1,12.08,12.44C742.59,31.46,737,37.16,730.51,37.16Z"/><path class="cls-3" d="M780.72.83h-1.93c16.67,0,28.47,9.87,28.47,23.83s-11.8,23.89-28.47,23.89h1.93c16.67,0,28.47-9.93,28.47-23.89S797.39.83,780.72.83Z"/><rect class="cls-3" x="774.48" y="13.06" width="1.93" height="23.27"/><path class="cls-4" d="M807.26,24.66c0-14-11.8-23.83-28.47-23.83H762.94V48.55h15.85C795.46,48.55,807.26,38.62,807.26,24.66ZM782.94,36.32h-8.46V13.06h8.46c7.22,0,12.36,4.79,12.36,11.6S790.16,36.32,782.94,36.32Z"/><path class="cls-3" d="M858.79,27.36c0,12.61-8.92,21.57-21.74,22l1,0c13.34,0,22.71-9.1,22.71-22V.83h-1.93Z"/><path class="cls-3" d="M836.08,37.16c.33,0,.65,0,1,0-4.9-.49-8.28-4.7-8.28-10.44V.83h-1.92V26.67C826.85,32.78,830.67,37.16,836.08,37.16Z"/><path class="cls-4" d="M858.79,27.36V.83H847.25V26.67c0,6.11-3.82,10.49-9.24,10.49-.33,0-.65,0-1,0s-.64,0-1,0c-5.41,0-9.23-4.38-9.23-10.49V.83H815.3V27.36c0,12.61,8.93,21.57,21.75,22C849.87,48.93,858.79,40,858.79,27.36Z"/><path class="cls-3" d="M891.74,49.36l1,0a26.32,26.32,0,0,0,19.38-8.47l-9.87-8.61a12.54,12.54,0,0,1-.83,1l8.77,7.66A26.37,26.37,0,0,1,891.74,49.36Z"/><path class="cls-3" d="M891.69,12.28c-.29,0-.58-.06-.88-.06a12.45,12.45,0,0,0-12.09,12.44c0,6.8,5.56,12.5,12.09,12.5a8.87,8.87,0,0,0,.89-.06,12.49,12.49,0,0,1,0-24.82Z"/><path class="cls-3" d="M910.19,8.4l-8.83,7.72a10.78,10.78,0,0,1,.82,1l9.94-8.69A26.53,26.53,0,0,0,892.74,0l-1,0A26.55,26.55,0,0,1,910.19,8.4Z"/><path class="cls-4" d="M878.72,24.66a12.45,12.45,0,0,1,12.09-12.44c.3,0,.59,0,.88.06s.69-.06,1-.06a11.91,11.91,0,0,1,8.62,3.9l8.83-7.72A26.55,26.55,0,0,0,891.74,0c-13.66.52-25,11.55-25,24.64s11.32,24.18,25,24.7a26.37,26.37,0,0,0,18.45-8.45l-8.77-7.66a12,12,0,0,1-8.68,3.91c-.35,0-.7,0-1-.06a8.87,8.87,0,0,1-.89.06C884.28,37.16,878.72,31.46,878.72,24.66Z"/><rect class="cls-3" x="954.77" y="0.83" width="1.93" height="12.02"/><rect class="cls-3" x="940.67" y="12.85" width="1.93" height="35.7"/><polygon class="cls-4" points="915.03 0.83 915.03 12.85 927.2 12.85 929.13 12.85 929.13 48.55 940.67 48.55 940.67 12.85 942.6 12.85 954.77 12.85 954.77 0.83 915.03 0.83"/><rect class="cls-3" x="974.21" y="0.83" width="1.93" height="47.72"/><rect class="cls-4" x="962.67" y="0.83" width="11.54" height="47.72"/><path class="cls-3" d="M996.77,24.66a12.48,12.48,0,0,1,11.12-12.38c-.32,0-.64-.06-1-.06a12.45,12.45,0,0,0-12.09,12.44c0,6.8,5.56,12.5,12.09,12.5.32,0,.64,0,1,0A12.52,12.52,0,0,1,996.77,24.66Z"/><path class="cls-3" d="M1008.85,0l-1,0c13.67.5,25,11.54,25,24.64s-11.34,24.2-25,24.7l1,0c14.1,0,26-11.32,26-24.72S1023,0,1008.85,0Z"/><path class="cls-4" d="M1032.9,24.66c0-13.1-11.34-24.14-25-24.64-13.67.5-25,11.54-25,24.64s11.34,24.2,25,24.7C1021.56,48.86,1032.9,37.75,1032.9,24.66Zm-24.05,12.5c-.32,0-.64,0-1,0s-.64,0-1,0c-6.53,0-12.09-5.7-12.09-12.5a12.45,12.45,0,0,1,12.09-12.44c.32,0,.64,0,1,.06s.64-.06,1-.06a12.45,12.45,0,0,1,12.09,12.44C1020.94,31.46,1015.38,37.16,1008.85,37.16Z"/><polygon class="cls-3" points="1052.83 48.55 1054.76 48.55 1054.76 25.64 1052.83 22.99 1052.83 48.55"/><rect class="cls-3" x="1084.92" y="0.83" width="1.93" height="47.72"/><polygon class="cls-3" points="1071.44 23.74 1054.76 0.83 1052.83 0.83 1071.44 26.39 1071.44 23.74"/><polygon class="cls-4" points="1073.37 0.83 1073.37 26.39 1071.44 23.74 1071.44 26.39 1052.83 0.83 1041.28 0.83 1041.28 48.55 1052.83 48.55 1052.83 22.99 1054.76 25.64 1054.76 22.99 1073.37 48.55 1084.92 48.55 1084.92 0.83 1073.37 0.83"/><path class="cls-3" d="M1115.94,19c-6.8-1.46-8.47-2.22-8.47-4.65,0-1.63,1.31-2.86,4-3.08-.34,0-.69-.05-1-.05-3.26,0-4.86,1.32-4.86,3.13,0,2.43,1.67,3.19,8.47,4.65,11.11,2.36,18.06,5.35,18.06,14.45,0,9.85-7.4,15.7-18.91,16l1.18,0c12,0,19.66-5.9,19.66-16C1134,24.31,1127.05,21.32,1115.94,19Z"/><path class="cls-3" d="M1113.87,38.16a25.44,25.44,0,0,1-14.81-5.79l-.73.87a24.73,24.73,0,0,0,14.57,5C1113.24,38.2,1113.56,38.18,1113.87,38.16Z"/><path class="cls-3" d="M1124.63,15.1c.44.28.88.56,1.31.87l6.74-9.51c-5.28-4.24-11.74-6.46-20-6.46-.33,0-.64,0-1,0,7.8.17,14,2.36,19,6.43Z"/><path class="cls-4" d="M1132.07,33.41c0-9.1-7-12.09-18.06-14.45-6.8-1.46-8.47-2.22-8.47-4.65,0-1.81,1.6-3.13,4.86-3.13.34,0,.69,0,1,.05a8.57,8.57,0,0,1,.9-.05,23.34,23.34,0,0,1,12.3,3.92l6.12-8.64c-5.07-4.07-11.24-6.26-19-6.43-10.77.35-17.86,6.43-17.86,15.67,0,9.93,8,12.64,18.34,15,6.6,1.53,8.27,1.87,8.27,4.17,0,2.08-2,3.33-5.63,3.33-.32,0-.64,0-1,0s-.63,0-1,0a24.73,24.73,0,0,1-14.57-5l-6.77,8.09a33.83,33.83,0,0,0,21.6,8C1124.67,49.11,1132.07,43.26,1132.07,33.41Z"/></g></g></g></g></svg>