<svg xmlns="http://www.w3.org/2000/svg" viewBox="0 0 174.85 97.78"><defs><style>.cls-1{fill:#fff}.cls-2{fill:#f00000}.cls-3{fill:#00d2ff}</style></defs><g id="Layer_2" data-name="Layer 2"><g id="Final"><g id="_2" data-name="2"><g id="Dot_and_Frame" data-name="Dot and Frame"><g id="Frame"><path id="Bottom_Right" data-name="Bottom Right" class="cls-1" d="M171.85 70.81v23.97h-38.89v3h41.89V70.81h-3z"/><path id="Bottom_Left" data-name="Bottom Left" class="cls-1" d="M3 94.78V70.81H0v26.97h41.89v-3H3z"/><path id="Top_Right" data-name="Top Right" class="cls-1" d="M174.85 3V0h-41.89v3h38.89v24.19h3V3z"/><path id="Top_Left" data-name="Top Left" class="cls-1" d="M3 3v23.97H0V0h41.89v3H3z"/></g><circle id="Dot" class="cls-2" cx="16.83" cy="16.83" r="5.83"/></g><g id="SVP"><g id="Red"><path class="cls-2" d="M45.79 43.64C39.54 42.3 38 41.6 38 39.36c0-1.47 1.17-2.59 3.53-2.82h-1.07c-3 0-4.46 1.22-4.46 2.87 0 2.24 1.53 2.94 7.78 4.28C54 45.81 60.37 48.55 60.37 56.9c0 9-6.75 14.4-17.28 14.65h1.23c11 0 18-5.42 18-14.67.05-8.33-6.32-11.07-16.53-13.24z"/><path class="cls-2" d="M43.77 61.26A23.34 23.34 0 0130.29 56l-.76.91a22.73 22.73 0 0013.24 4.45c.36-.05.68-.07 1-.1zM53.62 40c.45.29.91.58 1.36.91l6.18-8.74c-4.84-3.89-10.78-5.93-18.37-5.93h-1c7.11.18 12.74 2.18 17.37 5.9zm39.34 30.81h2l16.84-43.82h-2L92.96 70.81zm-5.95-20.78l-8.88-23.04h-2l9.88 25.64 1-2.6zm39.05-11.81h2v8.16h-2zM136.67 27h-2c9.83 0 16.78 6.32 16.78 15.31s-6.95 15.31-16.78 15.31h2c9.83 0 16.78-6.32 16.78-15.31S146.5 27 136.67 27zm-10.61 30.61h2v13.2h-2z"/></g><g id="Cyan"><path class="cls-3" d="M29.53 56.86c-.41-.3-.83-.59-1.24-.91l-6.89 8.23c5.55 4.91 13 7.39 20.92 7.39h.77a31 31 0 01-19.69-7.39zm20.41 1.38c0-2.1-1.53-2.42-7.59-3.82-9.51-2.17-16.84-4.66-16.84-13.78 0-8.45 6.45-14 16.28-14.38h-1c-10.39 0-17.28 5.67-17.28 14.41 0 9.12 7.33 11.61 16.84 13.78 6.06 1.4 7.59 1.72 7.59 3.82 0 1.72-1.44 2.81-4.17 3 .34 0 .67.05 1 .05 3.38-.01 5.17-1.16 5.17-3.08z"/><path class="cls-3" d="M41.54 36.54A22.41 22.41 0 0153 40.9l.64-.91a21.33 21.33 0 00-11.15-3.5c-.35 0-.65.03-.95.05zm56.29-9.55h-2l-8.82 23.04 1 2.6 9.82-25.64zm-35.67 0L79 70.81h2L64.16 26.99h-2zm73.49 11.23h-2c2.94 0 5 1.72 5 4.08s-2.1 4.08-5 4.08h2c2.94 0 5-1.72 5-4.08s-2.06-4.08-5-4.08zm-21.96-11.23h2v43.82h-2z"/></g><path class="cls-1" d="M60.37 56.9c0-8.35-6.37-11.09-16.58-13.26C37.54 42.3 36 41.6 36 39.36c0-1.65 1.47-2.87 4.46-2.87h2A21.33 21.33 0 0153.62 40l5.54-7.83c-4.63-3.72-10.26-5.72-17.37-5.9-9.83.36-16.28 5.93-16.28 14.38 0 9.12 7.33 11.61 16.84 13.78 6.06 1.4 7.59 1.72 7.59 3.82 0 1.92-1.79 3.07-5.17 3.07-.33 0-.66 0-1-.05s-.64.05-1 .05a22.73 22.73 0 01-13.24-4.45l-6.13 7.31a31 31 0 0019.69 7.37c10.53-.25 17.28-5.62 17.28-14.65zm37.46-29.91l-9.82 25.64-1-2.6-1 2.6-9.88-25.64H64.16L81 70.81h11.96l16.84-43.82H97.83zm53.62 15.31c0-9-6.95-15.31-16.78-15.31h-19v43.82h10.37v-13.2h8.61c9.85 0 16.8-6.32 16.8-15.31zm-15.8 4.08h-9.59v-8.16h9.59c2.94 0 5 1.72 5 4.08s-2.06 4.08-5 4.08z" id="SVP-2" data-name="SVP"/></g></g></g></g></svg>