<svg xmlns="http://www.w3.org/2000/svg" viewBox="0 0 1134 49.38"><defs><style>.cls-2{fill:#00d2ff}.cls-3{fill:#f00000}.cls-4{fill:#fff}</style></defs><g id="Layer_2" data-name="Layer 2"><g id="About"><g id="Banner"><g id="Full_Name_Logo" data-name="Full Name Logo"><path d="M1019 24.66a11.19 11.19 0 10-11.12 12.45A12.48 12.48 0 001019 24.66zM683.23 17.5c0-2.57-2.29-4.44-5.49-4.44h-6.33V22h6.33c3.2 0 5.49-1.93 5.49-4.5zm57.43 7.16a11.19 11.19 0 10-11.12 12.45 12.48 12.48 0 0011.12-12.45zm-562.18 0c0-6.81-5.14-11.6-12.36-11.6h-4.6v23.26h4.6c7.22 0 12.36-4.86 12.36-11.66zm614.89 0c0-6.81-5.14-11.6-12.36-11.6h-4.6v23.26H781c7.23 0 12.37-4.86 12.37-11.66zm-223.13 0a11.19 11.19 0 10-11.12 12.45 12.48 12.48 0 0011.12-12.45zm-101.88 0c0-6.81-5.14-11.6-12.36-11.6h-4.6v23.26h4.6c7.22 0 12.36-4.86 12.36-11.66zM636.7 17.5c0-2.57-2.29-4.44-5.49-4.44h-6.33V22h6.33c3.2 0 5.49-1.93 5.49-4.5z" fill="none"/><path class="cls-2" d="M30.82 34.87c0-2.3-1.66-2.64-8.26-4.17-10.35-2.36-18.34-5.07-18.34-15C4.22 6.46 11.31.38 22.08 0h-1C9.79 0 2.29 6.18 2.29 15.7c0 9.93 8 12.64 18.34 15 6.6 1.53 8.26 1.87 8.26 4.17 0 1.88-1.61 3.08-4.65 3.29h1c3.64.04 5.58-1.16 5.58-3.29z"/><path class="cls-2" d="M21.8 11.23A24.35 24.35 0 0134.38 16l.62-.9a23.37 23.37 0 00-12.3-3.92 8.57 8.57 0 00-.9.05zM8.7 33.24c-.4-.29-.8-.56-1.2-.87l-7.5 9c6 5.34 14.17 8.05 22.78 8.05h.74a33.8 33.8 0 01-21.59-8zM60 12.85h1.93v35.7H60zM45.91.83h1.93v12.02h-1.93zm80.82 25.84V.83h-1.93v25.84c0 5.74-3.37 9.95-8.27 10.44h1c5.38.05 9.2-4.33 9.2-10.44zm-31.95.69V.83h-1.93v26.53c0 12.92 9.38 22 22.71 22h1c-12.85-.43-21.78-9.36-21.78-22zM146.12.83h1.93v47.72h-1.93zm21.93 12.23h-1.93c7.22 0 12.36 4.79 12.36 11.6s-5.14 11.66-12.36 11.66h1.93c7.22 0 12.36-4.86 12.36-11.66s-5.14-11.6-12.36-11.6zM198.9.83h1.93v47.72h-1.93zm79.23 0h-1.93v22.91l1.93 2.65V.83zm-18.62 24.81l16.69 22.91h1.93l-18.62-25.56v2.65zM244.11.83h1.93v47.72h-1.93zm65.42 12.02h1.93v35.7h-1.93zM295.43.83h1.93v12.02h-1.93zm62.15 0l18.34 47.72h1.93L359.51.83h-1.93zm38.61 0h-1.93l-9.74 25.41.97 2.51L396.19.83zm17.79 0h1.93v47.72h-1.93zm22.01 0h1.93v47.72h-1.93zm21.93 12.23H456c7.22 0 12.36 4.79 12.36 11.6S463.22 36.32 456 36.32h1.92c7.23 0 12.37-4.86 12.37-11.66s-5.14-11.6-12.37-11.6zM488.77.83h1.93v47.72h-1.93zm71.31 11.39c-.32 0-.64 0-1 .06a12.49 12.49 0 010 24.83h1c6.53 0 12.09-5.7 12.09-12.5a12.45 12.45 0 00-12.09-12.39z"/><path class="cls-2" d="M534.11 24.66c0-13.1 11.34-24.14 25-24.64h-1c-14.1 0-26 11.25-26 24.66s11.87 24.72 26 24.72h1c-13.66-.54-25-11.65-25-24.74zM609.47.83h1.93v47.72h-1.93zm23.67 12.23h-1.93c3.2 0 5.49 1.87 5.49 4.44s-2.29 4.5-5.49 4.5h1.93c3.2 0 5.49-1.88 5.49-4.45s-2.29-4.49-5.49-4.49zM656 .83h1.93v47.72H656zm17.64 33.34l10.08 14.38h1.92l-10.07-14.38h-1.93zm6.03-21.11h-1.93c3.2 0 5.49 1.87 5.49 4.44s-2.29 4.5-5.49 4.5h1.93c3.2 0 5.49-1.88 5.49-4.45s-2.29-4.49-5.49-4.49zm24.86 11.6c0-13.1 11.34-24.14 25-24.64h-1c-14.1 0-26 11.25-26 24.66s11.88 24.72 26 24.72h1c-13.66-.54-25-11.65-25-24.74z"/><path class="cls-2" d="M730.51 12.22c-.33 0-.65 0-1 .06a12.49 12.49 0 010 24.83h1c6.53 0 12.08-5.7 12.08-12.5a12.44 12.44 0 00-12.08-12.39zM761.01.83h1.93v47.72h-1.93zm21.93 12.23H781c7.22 0 12.36 4.79 12.36 11.6S788.23 36.32 781 36.32h1.93c7.22 0 12.36-4.86 12.36-11.66s-5.13-11.6-12.35-11.6zm64.31 13.61V.83h-1.93v25.84c0 5.74-3.37 9.95-8.27 10.44h1c5.38.05 9.2-4.33 9.2-10.44zm-31.95.69V.83h-1.93v26.53c0 12.92 9.38 22 22.71 22h1c-12.85-.43-21.78-9.36-21.78-22zm86.12 5.89l-1.1-1a12.28 12.28 0 01-8.62 4.8c.34 0 .69.06 1 .06a12 12 0 008.72-3.86zm-8.68-21.03c-.36 0-.7 0-1 .06a12.11 12.11 0 018.56 4.81l1.11-1a11.91 11.91 0 00-8.67-3.87z"/><path class="cls-2" d="M866.76 24.66c0-13.09 11.32-24.12 25-24.64h-.93c-14.1 0-26 11.25-26 24.66s11.88 24.72 26 24.72h.93c-13.68-.56-25-11.66-25-24.74zM913.1.83h1.93v12.02h-1.93zm14.1 12.02h1.93v35.7h-1.93zM960.74.83h1.93v47.72h-1.93zm22.14 23.83c0-13.1 11.34-24.14 25-24.64h-1c-14.1 0-26 11.25-26 24.66s11.88 24.72 26 24.72h1c-13.66-.54-25-11.65-25-24.74z"/><path class="cls-2" d="M1008.85 12.22c-.32 0-.64 0-1 .06a12.49 12.49 0 010 24.83h1c6.53 0 12.09-5.7 12.09-12.5a12.45 12.45 0 00-12.09-12.39zm30.5-11.39h1.93v47.72h-1.93zm15.41 24.81l16.68 22.91h1.93l-18.61-25.56v2.65zM1073.37.83h-1.93v22.91l1.93 2.65V.83zm47.09 34.04c0-2.3-1.67-2.64-8.27-4.17-10.35-2.36-18.34-5.07-18.34-15 0-9.24 7.09-15.32 17.86-15.67h-1c-11.32 0-18.82 6.18-18.82 15.7 0 9.93 8 12.64 18.33 15 6.6 1.53 8.27 1.87 8.27 4.17 0 1.88-1.62 3.08-4.66 3.29h1c3.68.01 5.63-1.19 5.63-3.32z"/><path class="cls-2" d="M1111.43 11.23A24.32 24.32 0 011124 16l.62-.87a23.34 23.34 0 00-12.3-3.92 8.57 8.57 0 00-.89.02zm-13.1 22.01c-.4-.29-.8-.56-1.2-.87l-7.5 9c6 5.34 14.17 8.05 22.79 8.05h.74a33.83 33.83 0 01-21.6-8z"/><path class="cls-3" d="M24.24 38.16a25.42 25.42 0 01-14.81-5.79l-.73.87a24.73 24.73 0 0014.57 5c.34-.04.65-.06.97-.08zM35 15.1c.44.28.88.56 1.31.87l6.74-9.51C37.77 2.22 31.31 0 23 0h-1c7.8.17 14 2.36 19 6.43z"/><path class="cls-3" d="M26.31 19c-6.81-1.46-8.48-2.22-8.48-4.65 0-1.63 1.32-2.86 4-3.08-.35 0-.69-.05-1-.05-3.27 0-4.87 1.32-4.87 3.13 0 2.43 1.67 3.19 8.48 4.65 11.11 2.36 18.06 5.35 18.06 14.45 0 9.85-7.4 15.7-18.92 16h1.19c11.95 0 19.66-5.9 19.66-16-.06-9.14-7.01-12.13-18.12-14.45z"/><path class="cls-4" d="M42.44 33.41c0-9.1-6.95-12.09-18.06-14.45-6.81-1.46-8.48-2.22-8.48-4.65 0-1.81 1.6-3.13 4.87-3.13.34 0 .68 0 1 .05a8.57 8.57 0 01.9-.05A23.37 23.37 0 0135 15.1l6.12-8.64C36.05 2.39 29.88.2 22.08 0 11.31.38 4.22 6.46 4.22 15.7c0 9.93 8 12.64 18.34 15 6.6 1.53 8.26 1.87 8.26 4.17 0 2.08-1.94 3.33-5.62 3.33h-2a24.73 24.73 0 01-14.57-5l-6.7 8.13a33.8 33.8 0 0021.59 8c11.48-.22 18.92-6.07 18.92-15.92z"/><path class="cls-3" d="M73.48 12.85h1.93v35.7h-1.93zM87.58.83h1.93v12.02h-1.93z"/><path class="cls-4" d="M47.84.83v12.02h14.09v35.7h11.55v-35.7h14.1V.83H47.84z"/><path class="cls-3" d="M115.56 37.16h1c-4.9-.49-8.28-4.7-8.28-10.44V.83h-1.92v25.84c-.03 6.11 3.79 10.49 9.2 10.49zm22.72-9.8c0 12.61-8.93 21.57-21.75 22h1c13.34 0 22.71-9.1 22.71-22V.83h-1.92z"/><path class="cls-4" d="M138.28 27.36V.83h-11.55v25.84c0 6.11-3.82 10.49-9.24 10.49h-2c-5.41 0-9.23-4.38-9.23-10.49V.83H94.78v26.53c0 12.61 8.93 21.57 21.75 22 12.82-.43 21.75-9.36 21.75-22z"/><path class="cls-3" d="M159.59 13.06h1.93v23.27h-1.93zM165.83.83h-1.93c16.67 0 28.47 9.87 28.47 23.83s-11.8 23.89-28.47 23.89h1.93c16.67 0 28.47-9.93 28.47-23.89S182.5.83 165.83.83z"/><path class="cls-4" d="M192.37 24.66c0-14-11.8-23.83-28.47-23.83h-15.85v47.72h15.85c16.67 0 28.47-9.93 28.47-23.89zm-24.32 11.66h-8.46V13.06h8.46c7.22 0 12.36 4.79 12.36 11.6s-5.14 11.66-12.36 11.66z"/><path class="cls-3" d="M237.31 36.53h1.93v12.02h-1.93zm-2.23-18.33h1.93v12.02h-1.93zm-22.71 12.01h1.93v6.32h-1.93zm0-17.36h1.93v5.35h-1.93zM237.31.83h1.93v12.02h-1.93z"/><path class="cls-4" d="M200.83.83v47.72h36.48V36.53h-24.94v-6.32h22.71V18.2h-22.71v-5.35h24.94V.83h-36.48z"/><path class="cls-3" d="M289.67.83h1.93v47.72h-1.93zm-32.09 47.72h1.93V25.64l-1.93-2.65v25.56zm18.62-24.81L259.51.83h-1.93l18.62 25.56v-2.65z"/><path class="cls-4" d="M278.13.83v25.56l-1.93-2.65v2.65L257.58.83h-11.54v47.72h11.54V22.99l1.93 2.65v-2.65l18.62 25.56h11.54V.83h-11.54z"/><path class="cls-3" d="M337.1.83h1.93v12.02h-1.93zM323 12.85h1.93v35.7H323z"/><path class="cls-4" d="M297.36.83v12.02h14.1v35.7H323v-35.7h14.1V.83h-39.74z"/><path class="cls-3" d="M391.13 48.55h1.93L411.4.83h-1.93l-18.34 47.72zm-6.61-22.31L374.73.83h-1.93l10.76 27.92.96-2.51z"/><path class="cls-4" d="M396.19.83l-10.7 27.92-.97-2.51-.96 2.51L372.8.83h-13.29l18.34 47.72h13.28L409.47.83h-13.28z"/><path class="cls-3" d="M427.45.83h1.93v47.72h-1.93z"/><path class="cls-4" d="M415.91.83h11.55v47.72h-11.55z"/><path class="cls-3" d="M449.47 13.06h1.93v23.27h-1.93zM455.7.83h-1.93c16.67 0 28.48 9.87 28.48 23.83s-11.81 23.89-28.48 23.89h1.93c16.67 0 28.48-9.93 28.48-23.89S472.37.83 455.7.83z"/><path class="cls-4" d="M482.25 24.66c0-14-11.81-23.83-28.48-23.83h-15.85v47.72h15.85c16.67 0 28.48-9.93 28.48-23.89zm-24.33 11.66h-8.45V13.06h8.45c7.23 0 12.37 4.79 12.37 11.6s-5.14 11.66-12.37 11.66z"/><path class="cls-3" d="M527.18.83h1.93v12.02h-1.93zm-2.22 17.37h1.93v12.02h-1.93zm-22.71-5.35h1.93v5.35h-1.93zm0 17.36h1.93v6.32h-1.93zm24.93 6.32h1.93v12.02h-1.93z"/><path class="cls-4" d="M490.7.83v47.72h36.48V36.53h-24.93v-6.32h22.71V18.2h-22.71v-5.35h24.93V.83H490.7z"/><path class="cls-3" d="M548 24.66a12.48 12.48 0 0111.12-12.38c-.32 0-.64-.06-1-.06a12.44 12.44 0 00-12.08 12.44c0 6.8 5.55 12.5 12.08 12.5h1A12.52 12.52 0 01548 24.66z"/><path class="cls-3" d="M560.08 0h-1c13.67.5 25 11.54 25 24.64s-11.34 24.2-25 24.7h1c14.1 0 26-11.32 26-24.72S574.18 0 560.08 0z"/><path class="cls-4" d="M584.13 24.66c0-13.1-11.34-24.14-25-24.64-13.67.5-25 11.54-25 24.64s11.34 24.2 25 24.7c13.66-.5 25-11.61 25-24.7zm-24 12.5h-2c-6.53 0-12.08-5.7-12.08-12.5a12.44 12.44 0 0112.08-12.44c.33 0 .65 0 1 .06s.64-.06 1-.06a12.45 12.45 0 0112.09 12.44c-.05 6.8-5.61 12.5-12.14 12.5z"/><path class="cls-3" d="M622.95 34.17h1.93v14.38h-1.93zM634.25.83h-1.93c10.7 0 18.27 6.88 18.27 16.67S643 34.17 632.32 34.17h1.93c10.7 0 18.27-6.87 18.27-16.67S645 .83 634.25.83zm-11.3 12.23h1.93v8.89h-1.93z"/><path class="cls-4" d="M650.59 17.5c0-9.79-7.59-16.67-18.27-16.67H611.4v47.72H623V34.17h9.37c10.63 0 18.22-6.87 18.22-16.67zM633.14 22H623v-8.94h10.19c3.2 0 5.49 1.87 5.49 4.44s-2.34 4.5-5.54 4.5z"/><path class="cls-3" d="M699.05 17.5c0-9.79-7.57-16.67-18.27-16.67h-1.93c10.7 0 18.27 6.88 18.27 16.67a15.85 15.85 0 01-9.45 14.87l11.39 16.18H701l-11.4-16.18a15.85 15.85 0 009.45-14.87zm-29.57 16.67h1.93v14.38h-1.93zm0-21.11h1.93v8.89h-1.93z"/><path class="cls-4" d="M697.12 17.5c0-9.79-7.57-16.67-18.27-16.67h-20.92v47.72h11.55V34.17h6.09l10.07 14.38h13.42l-11.39-16.18a15.85 15.85 0 009.45-14.87zM679.67 22h-10.19v-8.94h10.19c3.2 0 5.49 1.87 5.49 4.44s-2.29 4.5-5.49 4.5z"/><path class="cls-3" d="M730.51 0h-1c13.67.5 25 11.54 25 24.64s-11.34 24.2-25 24.7h1c14.1 0 26-11.32 26-24.72S744.61 0 730.51 0z"/><path class="cls-3" d="M718.42 24.66a12.48 12.48 0 0111.12-12.38c-.32 0-.64-.06-1-.06a12.45 12.45 0 00-12.09 12.44c0 6.8 5.56 12.5 12.09 12.5h1a12.52 12.52 0 01-11.12-12.5z"/><path class="cls-4" d="M754.55 24.66c0-13.1-11.34-24.14-25-24.64-13.67.5-25 11.54-25 24.64s11.34 24.2 25 24.7c13.66-.5 25-11.61 25-24.7zm-24 12.5h-2c-6.53 0-12.09-5.7-12.09-12.5a12.45 12.45 0 0112.09-12.44c.32 0 .64 0 1 .06s.64-.06 1-.06a12.44 12.44 0 0112.08 12.44c-.04 6.8-5.63 12.5-12.12 12.5z"/><path class="cls-3" d="M780.72.83h-1.93c16.67 0 28.47 9.87 28.47 23.83s-11.8 23.89-28.47 23.89h1.93c16.67 0 28.47-9.93 28.47-23.89S797.39.83 780.72.83zm-6.24 12.23h1.93v23.27h-1.93z"/><path class="cls-4" d="M807.26 24.66c0-14-11.8-23.83-28.47-23.83h-15.85v47.72h15.85c16.67 0 28.47-9.93 28.47-23.89zm-24.32 11.66h-8.46V13.06h8.46c7.22 0 12.36 4.79 12.36 11.6s-5.14 11.66-12.36 11.66z"/><path class="cls-3" d="M858.79 27.36c0 12.61-8.92 21.57-21.74 22h1c13.34 0 22.71-9.1 22.71-22V.83h-1.93zm-22.71 9.8h1c-4.9-.49-8.28-4.7-8.28-10.44V.83h-1.92v25.84c-.03 6.11 3.79 10.49 9.2 10.49z"/><path class="cls-4" d="M858.79 27.36V.83h-11.54v25.84c0 6.11-3.82 10.49-9.24 10.49h-2c-5.41 0-9.23-4.38-9.23-10.49V.83H815.3v26.53c0 12.61 8.93 21.57 21.75 22 12.82-.43 21.74-9.36 21.74-22z"/><path class="cls-3" d="M891.74 49.36h1a26.32 26.32 0 0019.38-8.47l-9.87-8.61a12.54 12.54 0 01-.83 1l8.77 7.66a26.37 26.37 0 01-18.45 8.42zm-.05-37.08c-.29 0-.58-.06-.88-.06a12.45 12.45 0 00-12.09 12.44c0 6.8 5.56 12.5 12.09 12.5a8.87 8.87 0 00.89-.06 12.49 12.49 0 010-24.82zm18.5-3.88l-8.83 7.72a10.78 10.78 0 01.82 1l9.94-8.69A26.53 26.53 0 00892.74 0h-1a26.55 26.55 0 0118.45 8.4z"/><path class="cls-4" d="M878.72 24.66a12.45 12.45 0 0112.09-12.44c.3 0 .59 0 .88.06s.69-.06 1-.06a11.91 11.91 0 018.62 3.9l8.83-7.72a26.55 26.55 0 00-18.4-8.4c-13.66.52-25 11.55-25 24.64s11.32 24.18 25 24.7a26.37 26.37 0 0018.45-8.45l-8.77-7.66a12 12 0 01-8.68 3.91c-.35 0-.7 0-1-.06a8.87 8.87 0 01-.89.06c-6.57.02-12.13-5.68-12.13-12.48z"/><path class="cls-3" d="M954.77.83h1.93v12.02h-1.93zm-14.1 12.02h1.93v35.7h-1.93z"/><path class="cls-4" d="M915.03.83v12.02h14.1v35.7h11.54v-35.7h14.1V.83h-39.74z"/><path class="cls-3" d="M974.21.83h1.93v47.72h-1.93z"/><path class="cls-4" d="M962.67.83h11.54v47.72h-11.54z"/><path class="cls-3" d="M996.77 24.66a12.48 12.48 0 0111.12-12.38c-.32 0-.64-.06-1-.06a12.45 12.45 0 00-12.09 12.44c0 6.8 5.56 12.5 12.09 12.5h1a12.52 12.52 0 01-11.12-12.5z"/><path class="cls-3" d="M1008.85 0h-1c13.67.5 25 11.54 25 24.64s-11.34 24.2-25 24.7h1c14.1 0 26-11.32 26-24.72S1023 0 1008.85 0z"/><path class="cls-4" d="M1032.9 24.66c0-13.1-11.34-24.14-25-24.64-13.67.5-25 11.54-25 24.64s11.34 24.2 25 24.7c13.66-.5 25-11.61 25-24.7zm-24.05 12.5h-2c-6.53 0-12.09-5.7-12.09-12.5a12.45 12.45 0 0112.09-12.44c.32 0 .64 0 1 .06s.64-.06 1-.06a12.45 12.45 0 0112.09 12.44c0 6.8-5.56 12.5-12.09 12.5z"/><path class="cls-3" d="M1052.83 48.55h1.93V25.64l-1.93-2.65v25.56zM1084.92.83h1.93v47.72h-1.93zm-13.48 22.91L1054.76.83h-1.93l18.61 25.56v-2.65z"/><path class="cls-4" d="M1073.37.83v25.56l-1.93-2.65v2.65L1052.83.83h-11.55v47.72h11.55V22.99l1.93 2.65v-2.65l18.61 25.56h11.55V.83h-11.55z"/><path class="cls-3" d="M1115.94 19c-6.8-1.46-8.47-2.22-8.47-4.65 0-1.63 1.31-2.86 4-3.08-.34 0-.69-.05-1-.05-3.26 0-4.86 1.32-4.86 3.13 0 2.43 1.67 3.19 8.47 4.65 11.11 2.36 18.06 5.35 18.06 14.45 0 9.85-7.4 15.7-18.91 16h1.18c12 0 19.66-5.9 19.66-16-.07-9.14-7.02-12.13-18.13-14.45z"/><path class="cls-3" d="M1113.87 38.16a25.44 25.44 0 01-14.81-5.79l-.73.87a24.73 24.73 0 0014.57 5c.34-.04.66-.06.97-.08zm10.76-23.06c.44.28.88.56 1.31.87l6.74-9.51c-5.28-4.24-11.74-6.46-20-6.46h-1c7.8.17 14 2.36 19 6.43z"/><path class="cls-4" d="M1132.07 33.41c0-9.1-7-12.09-18.06-14.45-6.8-1.46-8.47-2.22-8.47-4.65 0-1.81 1.6-3.13 4.86-3.13.34 0 .69 0 1 .05a8.57 8.57 0 01.9-.05 23.34 23.34 0 0112.3 3.92l6.12-8.64c-5.07-4.07-11.24-6.26-19-6.43-10.77.35-17.86 6.43-17.86 15.67 0 9.93 8 12.64 18.34 15 6.6 1.53 8.27 1.87 8.27 4.17 0 2.08-2 3.33-5.63 3.33h-2a24.73 24.73 0 01-14.57-5l-6.77 8.09a33.83 33.83 0 0021.6 8c11.57-.18 18.97-6.03 18.97-15.88z"/></g></g></g></g></svg>